<?xml version="1.0" encoding="iso-8859-1"?>
<!-- Generator: Adobe Illustrator 19.0.0, SVG Export Plug-In . SVG Version: 6.00 Build 0)  -->
<svg version="1.1" id="Layer_1" xmlns="http://www.w3.org/2000/svg" xmlns:xlink="http://www.w3.org/1999/xlink" x="0px" y="0px"
	 viewBox="0 0 512.002 512.002" style="enable-background:new 0 0 512.002 512.002;" xml:space="preserve">
<g>
	<g>
		<path d="M189.14,0h-24.851c-16.75,0-32.721,4.191-46.5,12.517l49.283,42.051c7.544,6.468,8.418,17.725,1.948,25.27
			c-3.558,4.152-8.598,6.231-13.667,6.231c-4.145,0-8.311-1.449-11.704-4.359L93.119,38.372c-0.656-0.563-1.243-1.181-1.799-1.811
			c-1.049,1.459-2.068,2.946-3.036,4.479L61.752,82.973c51.315,9.479,94.772,46.363,111.451,97.677
			c3.072,9.452-2.1,19.602-11.552,22.674c-1.847,0.6-3.721,0.887-5.565,0.887c-7.585,0-14.639-4.834-17.11-12.437
			c-14.11-43.423-53.735-73.069-98.548-75.099l-25.495,40.011c-9.115,14.41-14.115,31.037-14.115,48.087v21.756
			c0,4.346,1.565,8.58,4.135,12.085l11.555,15.648L4.738,272.232c-2.151,3.272-3.476,7.093-3.519,11.007l-0.402,21.939
			c0,0.075,0,0.15,0,0.227c0,17.208,5.082,33.967,14.354,48.462l21.193,32.99l8.719-7.729
			c33.841-30.157,77.466-46.765,122.795-46.765c9.937,0,18.005,8.056,18.005,17.994s-8.05,17.994-17.989,17.994
			c-36.489,0-71.587,13.369-98.827,37.646L56.09,417.561l33.355,52.145c0.443,0.692,0.926,1.345,1.385,2.022l50.205-43.046
			c7.543-6.471,18.903-5.598,25.371,1.948c6.469,7.544,5.596,18.903-1.948,25.371l-47.806,41.397
			c14.239,9.141,30.987,14.603,48.558,14.603h24.872c17.648,0,34.458-6.926,47.922-18.092V17.228C224.386,5.565,207.179,0,189.14,0z
			 M168.629,286.262H147.71c-54.723,0-99.243-44.459-99.243-99.181c0-9.937,8.056-17.963,17.994-17.963s17.994,8.009,17.994,17.948
			c0,34.878,28.376,63.208,63.256,63.208h20.918c9.937,0,17.994,8.056,17.994,17.994S178.566,286.262,168.629,286.262z"/>
	</g>
</g>
<g>
	<g>
		<path d="M510.759,283.239c-0.044-3.914-1.3-7.736-3.451-11.007l-11.861-17.969l11.624-15.648
			c2.568-3.507,4.111-7.739,4.111-12.087v-21.756c0-17.05-5.001-33.677-14.115-48.085l-25.456-40.093
			c-45.486,1.381-85.9,31.245-100.179,75.177c-2.472,7.603-9.548,12.437-17.133,12.437c-1.844,0-3.728-0.285-5.576-0.887
			c-9.452-3.072-14.629-13.222-11.557-22.674c16.835-51.804,60.971-88.893,112.92-97.936l-26.369-41.677
			c-1.204-1.902-2.488-3.731-3.813-5.521c-0.769,1.021-1.651,1.979-2.66,2.845l-50.531,43.324c-3.393,2.91-7.559,4.333-11.704,4.333
			c-5.071,0-10.109-2.13-13.667-6.281c-6.47-7.544-5.596-18.903,1.948-25.371l49.952-42.419C379.684,3.983,364.069,0,347.709,0
			h-24.851c-18.039,0-35.246,5.565-48.866,17.228v476.68C287.458,505.072,304.268,512,321.915,512h24.872
			c17.187,0,33.588-5.239,47.621-14.002l-48.504-41.793c-7.544-6.468-8.416-17.93-1.948-25.474
			c6.468-7.546,17.828-8.467,25.371-1.999l50.531,43.299c0.239,0.206,0.453,0.417,0.679,0.631c0.679-0.975,1.372-1.943,2.017-2.951
			l32.76-51.22l-14.019-12.494c-27.241-24.277-62.34-37.646-98.829-37.646c-9.937,0-17.994-8.056-17.994-17.994
			s8.056-17.995,17.994-17.995c45.329,0,88.931,16.608,122.772,46.765l9.717,8.657l21.877-33.918
			c9.272-14.496,14.354-31.253,14.354-48.462c0-0.075,0-0.15,0-0.227L510.759,283.239z M362.652,286.264h-20.918
			c-9.937,0-17.994-8.056-17.994-17.994c0-9.937,8.056-17.995,17.994-17.995h20.918c34.88,0,63.256-28.315,63.256-63.194
			c0-9.937,8.056-17.963,17.994-17.963s17.994,8.009,17.994,17.948C461.895,241.79,417.376,286.264,362.652,286.264z"/>
	</g>
</g>
<g>
</g>
<g>
</g>
<g>
</g>
<g>
</g>
<g>
</g>
<g>
</g>
<g>
</g>
<g>
</g>
<g>
</g>
<g>
</g>
<g>
</g>
<g>
</g>
<g>
</g>
<g>
</g>
<g>
</g>
</svg>
