<?xml version="1.0" encoding="UTF-8" standalone="no"?>
<!-- Generator: Adobe Illustrator 17.1.0, SVG Export Plug-In . SVG Version: 6.00 Build 0)  -->

<svg
   xmlns:dc="http://purl.org/dc/elements/1.1/"
   xmlns:cc="http://creativecommons.org/ns#"
   xmlns:rdf="http://www.w3.org/1999/02/22-rdf-syntax-ns#"
   xmlns:svg="http://www.w3.org/2000/svg"
   xmlns="http://www.w3.org/2000/svg"
   xmlns:sodipodi="http://sodipodi.sourceforge.net/DTD/sodipodi-0.dtd"
   xmlns:inkscape="http://www.inkscape.org/namespaces/inkscape"
   version="1.1"
   id="Capa_1"
   x="0px"
   y="0px"
   viewBox="0 0 296.438 296.438"
   style="enable-background:new 0 0 296.438 296.438;"
   xml:space="preserve"
   sodipodi:docname="drops.svg"
   inkscape:version="0.92.2 5c3e80d, 2017-08-06"><metadata
     id="metadata49"><rdf:RDF><cc:Work
         rdf:about=""><dc:format>image/svg+xml</dc:format><dc:type
           rdf:resource="http://purl.org/dc/dcmitype/StillImage" /></cc:Work></rdf:RDF></metadata><defs
     id="defs47" /><sodipodi:namedview
     pagecolor="#ffffff"
     bordercolor="#666666"
     borderopacity="1"
     objecttolerance="10"
     gridtolerance="10"
     guidetolerance="10"
     inkscape:pageopacity="0"
     inkscape:pageshadow="2"
     inkscape:window-width="1920"
     inkscape:window-height="1026"
     id="namedview45"
     showgrid="false"
     inkscape:zoom="0.79611929"
     inkscape:cx="-187.15788"
     inkscape:cy="148.21899"
     inkscape:window-x="0"
     inkscape:window-y="26"
     inkscape:window-maximized="1"
     inkscape:current-layer="Capa_1" /><g
     id="g12"
     style="fill:#ffffff;fill-opacity:1"><path
       d="M223.847,150.669c0-62.06-74.778-150.308-74.778-150.308S74.292,88.61,74.292,150.669   c0,41.299,33.479,74.776,74.776,74.776S223.847,191.968,223.847,150.669z"
       id="path2"
       style="fill:#ffffff;fill-opacity:1" /><path
       d="M24.667,219.567c-14.039,14.04-14.035,36.81,0.002,50.846c21.085,21.087,76.508,25.663,76.508,25.663   s-4.577-55.422-25.662-76.509C61.478,205.532,38.708,205.527,24.667,219.567z"
       id="path4"
       style="fill:#ffffff;fill-opacity:1" /><path
       d="M39.639,138.554c-9.065-9.065-23.771-9.067-32.839,0c-9.067,9.067-9.065,23.773,0,32.838   c13.618,13.618,49.413,16.574,49.413,16.574S53.257,152.17,39.639,138.554z"
       id="path6"
       style="fill:#ffffff;fill-opacity:1" /><path
       d="M220.923,219.567c-21.085,21.087-25.662,76.509-25.662,76.509s55.423-4.576,76.508-25.663   c14.037-14.035,14.041-36.806,0.002-50.846C257.729,205.527,234.96,205.532,220.923,219.567z"
       id="path8"
       style="fill:#ffffff;fill-opacity:1" /><path
       d="M289.638,138.554c-9.068-9.067-23.773-9.065-32.839,0c-13.618,13.616-16.574,49.412-16.574,49.412   s35.795-2.956,49.413-16.574C298.703,162.327,298.705,147.622,289.638,138.554z"
       id="path10"
       style="fill:#ffffff;fill-opacity:1" /></g><g
     id="g14" /><g
     id="g16" /><g
     id="g18" /><g
     id="g20" /><g
     id="g22" /><g
     id="g24" /><g
     id="g26" /><g
     id="g28" /><g
     id="g30" /><g
     id="g32" /><g
     id="g34" /><g
     id="g36" /><g
     id="g38" /><g
     id="g40" /><g
     id="g42" /></svg>