<?xml version="1.0" encoding="UTF-8" standalone="no"?>
<!-- Generator: Adobe Illustrator 19.0.0, SVG Export Plug-In . SVG Version: 6.00 Build 0)  -->

<svg
   xmlns:dc="http://purl.org/dc/elements/1.1/"
   xmlns:cc="http://creativecommons.org/ns#"
   xmlns:rdf="http://www.w3.org/1999/02/22-rdf-syntax-ns#"
   xmlns:svg="http://www.w3.org/2000/svg"
   xmlns="http://www.w3.org/2000/svg"
   xmlns:sodipodi="http://sodipodi.sourceforge.net/DTD/sodipodi-0.dtd"
   xmlns:inkscape="http://www.inkscape.org/namespaces/inkscape"
   version="1.1"
   id="Capa_1"
   x="0px"
   y="0px"
   viewBox="0 0 512 512"
   style="enable-background:new 0 0 512 512;"
   xml:space="preserve"
   sodipodi:docname="mortarboard.svg"
   inkscape:version="0.92.2 5c3e80d, 2017-08-06"><metadata
     id="metadata61"><rdf:RDF><cc:Work
         rdf:about=""><dc:format>image/svg+xml</dc:format><dc:type
           rdf:resource="http://purl.org/dc/dcmitype/StillImage" /></cc:Work></rdf:RDF></metadata><defs
     id="defs59" /><sodipodi:namedview
     pagecolor="#ffffff"
     bordercolor="#666666"
     borderopacity="1"
     objecttolerance="10"
     gridtolerance="10"
     guidetolerance="10"
     inkscape:pageopacity="0"
     inkscape:pageshadow="2"
     inkscape:window-width="964"
     inkscape:window-height="480"
     id="namedview57"
     showgrid="false"
     inkscape:zoom="0.4609375"
     inkscape:cx="256"
     inkscape:cy="256"
     inkscape:window-x="0"
     inkscape:window-y="26"
     inkscape:window-maximized="0"
     inkscape:current-layer="Capa_1" /><g
     id="g6"
     style="fill:#ffffff"><g
       id="g4"
       style="fill:#ffffff"><path
         d="M256,121c-66.301,0-121,13.5-121,30v135c0-16.5,54.699-30,121-30s121,13.5,121,30V151C377,134.5,322.301,121,256,121z"
         id="path2"
         style="fill:#ffffff" /></g></g><g
     id="g12"
     style="fill:#ffffff"><g
       id="g10"
       style="fill:#ffffff"><path
         d="M256,286c-66.167,0-121,13.462-121,30c0,16.538,54.833,30,121,30c23.903,0,121-6.097,121-30    C377,299.462,322.167,286,256,286z"
         id="path8"
         style="fill:#ffffff" /></g></g><g
     id="g18"
     style="fill:#ffffff"><g
       id="g16"
       style="fill:#ffffff"><path
         d="M482,333.763V160.272l21.709-10.854C508.792,146.869,512,141.684,512,136s-3.208-10.869-8.291-13.418l-241-121    c-4.219-2.109-9.199-2.109-13.418,0l-241,121C3.208,125.131,0,130.316,0,136s3.208,10.869,8.291,13.418L105,197.772V151    c0-52.207,94.984-60,151-60s151,7.793,151,60v46.772l45-22.5v158.491c-17.422,6.213-30,22.707-30,42.237c0,24.814,20.186,45,45,45    c24.814,0,45-20.186,45-45C512,356.47,499.422,339.976,482,333.763z"
         id="path14"
         style="fill:#ffffff" /></g></g><g
     id="g24"
     style="fill:#ffffff"><g
       id="g22"
       style="fill:#ffffff"><path
         d="M511.965,435.647C499.399,445.148,483.932,451,467,451s-32.399-5.852-44.965-15.353c-0.002,0.12-0.035,0.232-0.035,0.353    v61c0,8.291,6.709,15,15,15h60c8.291,0,15-6.709,15-15v-61C512,435.879,511.967,435.767,511.965,435.647z"
         id="path20"
         style="fill:#ffffff" /></g></g><g
     id="g26" /><g
     id="g28" /><g
     id="g30" /><g
     id="g32" /><g
     id="g34" /><g
     id="g36" /><g
     id="g38" /><g
     id="g40" /><g
     id="g42" /><g
     id="g44" /><g
     id="g46" /><g
     id="g48" /><g
     id="g50" /><g
     id="g52" /><g
     id="g54" /></svg>