<?xml version="1.0" encoding="iso-8859-1"?>
<!-- Generator: Adobe Illustrator 19.0.0, SVG Export Plug-In . SVG Version: 6.00 Build 0)  -->
<svg version="1.1" id="Capa_1" xmlns="http://www.w3.org/2000/svg" xmlns:xlink="http://www.w3.org/1999/xlink" x="0px" y="0px"
	 viewBox="0 0 512 512" style="enable-background:new 0 0 512 512;" xml:space="preserve">
<g>
	<g>
		<path d="M451.248,194.567h-16.229v121.505h16.229c33.498,0,60.752-27.254,60.752-60.753
			C512,221.82,484.746,194.567,451.248,194.567z"/>
	</g>
</g>
<g>
	<g>
		<path d="M379.76,194.567v-76.671H253.456v123.107H89.312v-51.525c0-19.022-15.476-34.498-34.499-34.498H34.499
			C15.476,154.98,0,170.456,0,189.478v133.043c0,19.022,15.476,34.499,34.499,34.499h20.314c19.022,0,34.499-15.476,34.499-34.499
			v-51.525h164.144v124.945H379.76V316.07h25.266V194.567H379.76z"/>
	</g>
</g>
<g>
	<g>
		<path d="M345.26,15.008h-57.305c-19.022,0-34.499,15.476-34.499,34.498v38.396H379.76V49.506
			C379.76,30.484,364.284,15.008,345.26,15.008z"/>
	</g>
</g>
<g>
	<g>
		<path d="M253.456,425.936v36.557c0,19.022,15.476,34.499,34.499,34.499h57.305c19.022,0,34.499-15.476,34.499-34.499v-36.557
			H253.456z"/>
	</g>
</g>
<g>
</g>
<g>
</g>
<g>
</g>
<g>
</g>
<g>
</g>
<g>
</g>
<g>
</g>
<g>
</g>
<g>
</g>
<g>
</g>
<g>
</g>
<g>
</g>
<g>
</g>
<g>
</g>
<g>
</g>
</svg>
