<?xml version="1.0" encoding="UTF-8" standalone="no"?>
<!-- Generator: Adobe Illustrator 19.0.0, SVG Export Plug-In . SVG Version: 6.00 Build 0)  -->

<svg
   xmlns:dc="http://purl.org/dc/elements/1.1/"
   xmlns:cc="http://creativecommons.org/ns#"
   xmlns:rdf="http://www.w3.org/1999/02/22-rdf-syntax-ns#"
   xmlns:svg="http://www.w3.org/2000/svg"
   xmlns="http://www.w3.org/2000/svg"
   xmlns:sodipodi="http://sodipodi.sourceforge.net/DTD/sodipodi-0.dtd"
   xmlns:inkscape="http://www.inkscape.org/namespaces/inkscape"
   version="1.1"
   id="Layer_1"
   x="0px"
   y="0px"
   viewBox="0 0 512 512"
   style="enable-background:new 0 0 512 512;"
   xml:space="preserve"
   sodipodi:docname="butterfly.svg"
   inkscape:version="0.92.2 5c3e80d, 2017-08-06"><metadata
     id="metadata61"><rdf:RDF><cc:Work
         rdf:about=""><dc:format>image/svg+xml</dc:format><dc:type
           rdf:resource="http://purl.org/dc/dcmitype/StillImage" /></cc:Work></rdf:RDF></metadata><defs
     id="defs59" /><sodipodi:namedview
     pagecolor="#ffffff"
     bordercolor="#666666"
     borderopacity="1"
     objecttolerance="10"
     gridtolerance="10"
     guidetolerance="10"
     inkscape:pageopacity="0"
     inkscape:pageshadow="2"
     inkscape:window-width="964"
     inkscape:window-height="480"
     id="namedview57"
     showgrid="false"
     inkscape:zoom="0.4609375"
     inkscape:cx="256"
     inkscape:cy="256"
     inkscape:window-x="0"
     inkscape:window-y="26"
     inkscape:window-maximized="0"
     inkscape:current-layer="Layer_1" /><g
     id="g6"
     style="fill:#ffffff"><g
       id="g4"
       style="fill:#ffffff"><path
         d="M322.381,19.091c-2-9-10.913-14.706-19.913-12.673c-19.13,4.25-35.28,14.891-46.467,29.4    c-11.187-14.509-27.337-25.15-46.467-29.4c-9.043-2.032-17.924,3.674-19.913,12.674c-2,8.999,3.674,17.912,12.674,19.912    c21.793,4.848,37.011,23.816,37.011,46.141c0,9.217,7.479,16.696,16.696,16.696c9.217,0,16.696-7.479,16.696-16.696    c0-22.327,15.218-41.294,37.011-46.141C318.707,37.004,324.381,28.091,322.381,19.091z"
         id="path2"
         style="fill:#ffffff" /></g></g><g
     id="g12"
     style="fill:#ffffff"><g
       id="g10"
       style="fill:#ffffff"><path
         d="M243.695,383.37c-48.347-1.533-96.402-16.191-137.934-42.355c-4.114-2.551-7.929-5.471-11.886-8.214    C79.81,364.396,72.348,398.7,72.348,434.2c0,19.827,2.402,39.707,7.152,59.076c0.036,0.144,0.13,0.25,0.171,0.392    c0.079,0.296,0.1,0.595,0.198,0.892c0.269,0.807,0.766,1.451,1.141,2.185c0.362,0.715,0.644,1.461,1.097,2.104    c0.611,0.875,1.375,1.57,2.13,2.298c0.522,0.505,0.967,1.076,1.549,1.508c0.916,0.679,1.948,1.133,2.981,1.614    c0.573,0.266,1.079,0.639,1.682,0.839c1.631,0.547,3.348,0.727,5.103,0.744c0.051,0.002,0.098-0.088,0.152-0.088h0.006h0.006    c0.011,0,0.022,0.11,0.032,0.11c1.299-0.002,2.622-0.091,3.946-0.415c0.296-0.073,0.554-0.184,0.843-0.271    c0.147-0.043,0.294-0.008,0.441-0.057c62.413-20.709,113.365-64.77,143.054-121.754L243.695,383.37z"
         id="path8"
         style="fill:#ffffff" /></g></g><g
     id="g18"
     style="fill:#ffffff"><g
       id="g16"
       style="fill:#ffffff"><path
         d="M418.12,332.787c-4.055,2.815-7.96,5.792-12.186,8.412c-41.079,25.886-88.851,40.489-138,42.174    c29.69,56.997,80.673,101.065,143.087,121.771c1.717,0.565,3.489,0.848,5.261,0.848c2.794,0,5.576-0.707,8.076-2.087    c4.076-2.249,7.032-6.108,8.141-10.631c4.75-19.369,7.152-39.25,7.152-59.076C439.653,398.695,432.188,364.388,418.12,332.787z"
         id="path14"
         style="fill:#ffffff" /></g></g><g
     id="g24"
     style="fill:#ffffff"><g
       id="g22"
       style="fill:#ffffff"><path
         d="M501.609,23.449c-2.217-7.294-9.109-12.369-16.685-11.858c-99.683,4.163-193.451,74.25-228.921,166.043    C220.678,85.951,126.844,15.757,27.076,11.591c-7.728-0.533-14.479,4.566-16.685,11.858C3.501,46.319,0,70.297,0,94.722    c0,52.739,21.663,108.554,52.044,150.772c19.12,27.065,43.217,49.717,71.511,67.271c36.522,23,78.782,35.83,122.228,37.221    c0.174,0.011,0.358-0.05,0.533-0.05c3.563,0,15.806,0,19.369,0c0.174,0,0.358,0.061,0.533,0.05    c43.445-1.391,85.707-14.253,122.12-37.198c28.403-17.608,52.5-40.245,71.543-67.191C490.337,203.26,512,147.453,512,94.714    C512,70.289,508.5,46.319,501.609,23.449z M133.565,211.928c-15.348,0-27.826-12.478-27.826-27.826s12.478-27.826,27.826-27.826    c15.348,0,27.826,12.478,27.826,27.826S148.913,211.928,133.565,211.928z M378.435,211.928c-15.348,0-27.826-12.478-27.826-27.826    s12.478-27.826,27.826-27.826c15.348,0,27.826,12.478,27.826,27.826S393.783,211.928,378.435,211.928z"
         id="path20"
         style="fill:#ffffff" /></g></g><g
     id="g26" /><g
     id="g28" /><g
     id="g30" /><g
     id="g32" /><g
     id="g34" /><g
     id="g36" /><g
     id="g38" /><g
     id="g40" /><g
     id="g42" /><g
     id="g44" /><g
     id="g46" /><g
     id="g48" /><g
     id="g50" /><g
     id="g52" /><g
     id="g54" /></svg>