<?xml version="1.0" encoding="iso-8859-1"?>
<!-- Generator: Adobe Illustrator 19.0.0, SVG Export Plug-In . SVG Version: 6.00 Build 0)  -->
<svg version="1.1" id="Capa_1" xmlns="http://www.w3.org/2000/svg" xmlns:xlink="http://www.w3.org/1999/xlink" x="0px" y="0px"
	 viewBox="0 0 512 512" style="enable-background:new 0 0 512 512;" xml:space="preserve">
<g>
	<g>
		<path d="M256,121c-66.301,0-121,13.5-121,30v135c0-16.5,54.699-30,121-30s121,13.5,121,30V151C377,134.5,322.301,121,256,121z"/>
	</g>
</g>
<g>
	<g>
		<path d="M256,286c-66.167,0-121,13.462-121,30c0,16.538,54.833,30,121,30c23.903,0,121-6.097,121-30
			C377,299.462,322.167,286,256,286z"/>
	</g>
</g>
<g>
	<g>
		<path d="M482,333.763V160.272l21.709-10.854C508.792,146.869,512,141.684,512,136s-3.208-10.869-8.291-13.418l-241-121
			c-4.219-2.109-9.199-2.109-13.418,0l-241,121C3.208,125.131,0,130.316,0,136s3.208,10.869,8.291,13.418L105,197.772V151
			c0-52.207,94.984-60,151-60s151,7.793,151,60v46.772l45-22.5v158.491c-17.422,6.213-30,22.707-30,42.237c0,24.814,20.186,45,45,45
			c24.814,0,45-20.186,45-45C512,356.47,499.422,339.976,482,333.763z"/>
	</g>
</g>
<g>
	<g>
		<path d="M511.965,435.647C499.399,445.148,483.932,451,467,451s-32.399-5.852-44.965-15.353c-0.002,0.12-0.035,0.232-0.035,0.353
			v61c0,8.291,6.709,15,15,15h60c8.291,0,15-6.709,15-15v-61C512,435.879,511.967,435.767,511.965,435.647z"/>
	</g>
</g>
<g>
</g>
<g>
</g>
<g>
</g>
<g>
</g>
<g>
</g>
<g>
</g>
<g>
</g>
<g>
</g>
<g>
</g>
<g>
</g>
<g>
</g>
<g>
</g>
<g>
</g>
<g>
</g>
<g>
</g>
</svg>
