<?xml version="1.0" encoding="UTF-8" standalone="no"?>
<!-- Generator: Adobe Illustrator 16.0.0, SVG Export Plug-In . SVG Version: 6.00 Build 0)  -->

<svg
   xmlns:dc="http://purl.org/dc/elements/1.1/"
   xmlns:cc="http://creativecommons.org/ns#"
   xmlns:rdf="http://www.w3.org/1999/02/22-rdf-syntax-ns#"
   xmlns:svg="http://www.w3.org/2000/svg"
   xmlns="http://www.w3.org/2000/svg"
   xmlns:sodipodi="http://sodipodi.sourceforge.net/DTD/sodipodi-0.dtd"
   xmlns:inkscape="http://www.inkscape.org/namespaces/inkscape"
   version="1.1"
   id="Capa_1"
   x="0px"
   y="0px"
   width="45.548px"
   height="45.547px"
   viewBox="0 0 45.548 45.547"
   style="enable-background:new 0 0 45.548 45.547;"
   xml:space="preserve"
   sodipodi:docname="tent.svg"
   inkscape:version="0.92.2 5c3e80d, 2017-08-06"><metadata
     id="metadata43"><rdf:RDF><cc:Work
         rdf:about=""><dc:format>image/svg+xml</dc:format><dc:type
           rdf:resource="http://purl.org/dc/dcmitype/StillImage" /></cc:Work></rdf:RDF></metadata><defs
     id="defs41" /><sodipodi:namedview
     pagecolor="#ffffff"
     bordercolor="#666666"
     borderopacity="1"
     objecttolerance="10"
     gridtolerance="10"
     guidetolerance="10"
     inkscape:pageopacity="0"
     inkscape:pageshadow="2"
     inkscape:window-width="964"
     inkscape:window-height="480"
     id="namedview39"
     showgrid="false"
     inkscape:zoom="5.1814608"
     inkscape:cx="22.774"
     inkscape:cy="22.7735"
     inkscape:window-x="0"
     inkscape:window-y="26"
     inkscape:window-maximized="0"
     inkscape:current-layer="Capa_1" /><g
     id="g6"
     style="fill:#ffffff"><g
       id="g4"
       style="fill:#ffffff"><path
         d="M0.364,41.487L20.822,8.418l-3.579-5.536c-0.479-0.741-0.267-1.729,0.474-2.208c0.741-0.479,1.731-0.268,2.211,0.475    l2.844,4.403l2.848-4.404c0.479-0.741,1.469-0.953,2.209-0.474c0.741,0.479,0.953,1.468,0.476,2.209l-3.578,5.536l20.457,33.069    c0.461,0.735,0.486,1.656,0.065,2.415c-0.42,0.76-1.22,1.225-2.087,1.225h-9.055c-0.817,0-1.579-0.417-2.021-1.104l-7.693-12.007    c-0.354-0.552-0.964-0.885-1.619-0.885c-0.654,0-1.265,0.333-1.619,0.886l-7.689,12.006c-0.44,0.689-1.202,1.106-2.021,1.106    H2.387c-0.868,0-1.668-0.465-2.088-1.226S-0.097,42.222,0.364,41.487z"
         id="path2"
         style="fill:#ffffff" /></g></g><g
     id="g8" /><g
     id="g10" /><g
     id="g12" /><g
     id="g14" /><g
     id="g16" /><g
     id="g18" /><g
     id="g20" /><g
     id="g22" /><g
     id="g24" /><g
     id="g26" /><g
     id="g28" /><g
     id="g30" /><g
     id="g32" /><g
     id="g34" /><g
     id="g36" /></svg>